<svg width="8" height="7" viewBox="0 0 8 7" fill="none" xmlns="http://www.w3.org/2000/svg">
<path d="M3.08916 0.921177C3.44382 0.1377 4.55651 0.1377 4.91117 0.921178L5.06566 1.26247C5.20426 1.56864 5.48738 1.78471 5.81927 1.83761L6.30091 1.91438C7.09379 2.04075 7.42197 3.00287 6.87158 3.58742L6.41943 4.06763C6.20751 4.29271 6.11161 4.60314 6.15964 4.90852L6.25108 5.48985C6.3815 6.31906 5.49394 6.93029 4.76577 6.51272L4.49762 6.35895C4.18951 6.18227 3.81081 6.18227 3.50271 6.35895L3.23456 6.51272C2.50638 6.93029 1.61882 6.31906 1.74925 5.48985L1.84069 4.90852C1.88872 4.60314 1.79281 4.29271 1.58089 4.06763L1.12875 3.58742C0.578357 3.00287 0.906532 2.04075 1.69942 1.91438L2.18105 1.83761C2.51294 1.78471 2.79607 1.56864 2.93466 1.26247L3.08916 0.921177Z" fill="#FFB800"/>
</svg>
