<svg width="21" height="21" viewBox="0 0 21 21" fill="none" xmlns="http://www.w3.org/2000/svg">
<path fill-rule="evenodd" clip-rule="evenodd" d="M8.60756 2H12.2056C13.8138 2 15.0878 2 16.0844 2.13388C17.1099 2.27213 17.9403 2.56262 18.5957 3.21712C19.1889 3.81037 19.4838 4.54888 19.6369 5.44837C19.7481 6.10462 19.7883 6.8825 19.8032 7.796C19.8146 7.86251 19.8158 7.93038 19.8067 7.99725C19.8093 8.2475 19.8111 8.50825 19.8119 8.7795C19.8124 8.95355 19.7437 9.12065 19.621 9.24405C19.5602 9.30515 19.488 9.35368 19.4084 9.38688C19.3289 9.42007 19.2436 9.43727 19.1574 9.4375C18.9834 9.43796 18.8163 9.36927 18.6929 9.24653C18.5695 9.12378 18.4999 8.95705 18.4994 8.783V8.5625H2.31368C2.31193 8.902 2.31193 9.266 2.31193 9.65625C2.31193 11.3249 2.31368 12.5105 2.43443 13.41C2.55256 14.2894 2.77481 14.7969 3.14493 15.167C3.51506 15.5371 4.02256 15.7594 4.90281 15.8775C5.80231 15.9983 6.98706 16 8.65568 16H9.96818C10.1422 16 10.3092 16.0691 10.4322 16.1922C10.5553 16.3153 10.6244 16.4822 10.6244 16.6562C10.6244 16.8303 10.5553 16.9972 10.4322 17.1203C10.3092 17.2434 10.1422 17.3125 9.96818 17.3125H8.60756C6.99931 17.3125 5.72531 17.3125 4.72868 17.1786C3.70318 17.0404 2.87281 16.7499 2.21743 16.0954C1.56293 15.44 1.27243 14.6096 1.13418 13.5841C1.00031 12.5866 1.00031 11.3135 1.00031 9.70525V9.60725C1.00031 9.028 1.00031 8.4925 1.00643 7.99725C0.997051 7.93042 0.997936 7.86256 1.00906 7.796C1.02306 7.00237 1.05543 6.31725 1.13418 5.72838C1.27243 4.70288 1.56293 3.8725 2.21743 3.21712C2.87281 2.56262 3.70318 2.27213 4.72868 2.13388C5.72618 2 6.99931 2 8.60756 2ZM2.33556 7.25H18.4776C18.4566 6.62437 18.4163 6.10725 18.3428 5.668C18.2177 4.93125 18.0042 4.48238 17.6673 4.1455C17.2972 3.77538 16.7897 3.55312 15.9094 3.435C15.0108 3.31425 13.8252 3.3125 12.1566 3.3125H8.65656C6.98793 3.3125 5.80318 3.31425 4.90281 3.435C4.02343 3.55312 3.51593 3.77538 3.14581 4.1455C2.77568 4.51563 2.55343 5.02312 2.43531 5.90337C2.38281 6.29275 2.35306 6.73637 2.33556 7.25ZM13.4691 10.75C13.6431 10.75 13.81 10.8191 13.9331 10.9422C14.0562 11.0653 14.1253 11.2322 14.1253 11.4062V15.0725L14.7553 14.4425C14.8154 14.378 14.8878 14.3263 14.9683 14.2904C15.0488 14.2546 15.1357 14.2353 15.2239 14.2337C15.312 14.2322 15.3995 14.2484 15.4812 14.2814C15.5629 14.3144 15.6371 14.3635 15.6995 14.4258C15.7618 14.4882 15.8109 14.5624 15.8439 14.6441C15.8769 14.7258 15.8931 14.8133 15.8916 14.9015C15.89 14.9896 15.8707 15.0765 15.8349 15.157C15.799 15.2375 15.7473 15.3099 15.6828 15.37L13.9328 17.12C13.8098 17.2429 13.643 17.3119 13.4691 17.3119C13.2951 17.3119 13.1284 17.2429 13.0053 17.12L11.2553 15.37C11.1908 15.3099 11.1391 15.2375 11.1032 15.157C11.0674 15.0765 11.0481 14.9896 11.0465 14.9015C11.045 14.8133 11.0612 14.7258 11.0942 14.6441C11.1272 14.5624 11.1763 14.4882 11.2386 14.4258C11.301 14.3635 11.3752 14.3144 11.4569 14.2814C11.5386 14.2484 11.6261 14.2322 11.7143 14.2337C11.8024 14.2353 11.8893 14.2546 11.9698 14.2904C12.0503 14.3263 12.1227 14.378 12.1828 14.4425L12.8128 15.0725V11.4062C12.8128 11.2322 12.8819 11.0653 13.005 10.9422C13.1281 10.8191 13.295 10.75 13.4691 10.75ZM16.9428 10.9425C17.0659 10.8196 17.2327 10.7506 17.4066 10.7506C17.5805 10.7506 17.7473 10.8196 17.8703 10.9425L19.6203 12.6925C19.6848 12.7526 19.7365 12.825 19.7724 12.9055C19.8082 12.986 19.8275 13.0729 19.8291 13.161C19.8306 13.2492 19.8144 13.3367 19.7814 13.4184C19.7484 13.5001 19.6993 13.5743 19.637 13.6367C19.5746 13.699 19.5004 13.7481 19.4187 13.7811C19.337 13.8141 19.2495 13.8303 19.1614 13.8288C19.0732 13.8272 18.9863 13.8079 18.9058 13.7721C18.8253 13.7362 18.7529 13.6845 18.6928 13.62L18.0628 12.99V16.6562C18.0628 16.8303 17.9937 16.9972 17.8706 17.1203C17.7475 17.2434 17.5806 17.3125 17.4066 17.3125C17.2325 17.3125 17.0656 17.2434 16.9425 17.1203C16.8194 16.9972 16.7503 16.8303 16.7503 16.6562V12.99L16.1203 13.62C16.0602 13.6845 15.9878 13.7362 15.9073 13.7721C15.8268 13.8079 15.7399 13.8272 15.6518 13.8288C15.5636 13.8303 15.4761 13.8141 15.3944 13.7811C15.3127 13.7481 15.2385 13.699 15.1761 13.6367C15.1138 13.5743 15.0647 13.5001 15.0317 13.4184C14.9987 13.3367 14.9825 13.2492 14.984 13.161C14.9856 13.0729 15.0049 12.986 15.0407 12.9055C15.0766 12.825 15.1283 12.7526 15.1928 12.6925L16.9428 10.9425ZM4.50031 13.1562C4.50031 12.9822 4.56945 12.8153 4.69252 12.6922C4.81559 12.5691 4.98251 12.5 5.15656 12.5H8.65656C8.83061 12.5 8.99752 12.5691 9.1206 12.6922C9.24367 12.8153 9.31281 12.9822 9.31281 13.1562C9.31281 13.3303 9.24367 13.4972 9.1206 13.6203C8.99752 13.7434 8.83061 13.8125 8.65656 13.8125H5.15656C4.98251 13.8125 4.81559 13.7434 4.69252 13.6203C4.56945 13.4972 4.50031 13.3303 4.50031 13.1562Z" fill="#F9FBFA"/>
</svg>
