<svg width="40" height="40" viewBox="0 0 40 40" fill="none" xmlns="http://www.w3.org/2000/svg">
<g clip-path="url(#clip0_525_3180)">
<path fill-rule="evenodd" clip-rule="evenodd" d="M30.6667 4C31.9927 4 33.2645 4.52678 34.2022 5.46447C35.1399 6.40215 35.6667 7.67392 35.6667 9V30.6667C35.6667 31.9927 35.1399 33.2645 34.2022 34.2022C33.2645 35.1399 31.9927 35.6667 30.6667 35.6667H9C7.67392 35.6667 6.40215 35.1399 5.46447 34.2022C4.52678 33.2645 4 31.9927 4 30.6667V9C4 7.67392 4.52678 6.40215 5.46447 5.46447C6.40215 4.52678 7.67392 4 9 4H30.6667ZM20.6667 24H19C18.558 24 18.134 24.1756 17.8215 24.4882C17.5089 24.8007 17.3333 25.2246 17.3333 25.6667V32.3333H22.3333V25.6667C22.3333 25.2246 22.1577 24.8007 21.8452 24.4882C21.5326 24.1756 21.1087 24 20.6667 24ZM24.2333 15.3283C23.6865 15.9584 23.0106 16.4635 22.2514 16.8094C21.4922 17.1553 20.6676 17.334 19.8333 17.3333C18.9991 17.334 18.1744 17.1553 17.4153 16.8094C16.6561 16.4635 15.9802 15.9584 15.4333 15.3283C14.8131 15.9641 14.0717 16.469 13.253 16.8134C12.4343 17.1578 11.5549 17.3346 10.6667 17.3333C9.49637 17.3352 8.34639 17.0276 7.33333 16.4417V30.6667C7.33333 31.1087 7.50893 31.5326 7.82149 31.8452C8.13405 32.1577 8.55797 32.3333 9 32.3333H14V25.6667C14 24.3406 14.5268 23.0688 15.4645 22.1311C16.4021 21.1934 17.6739 20.6667 19 20.6667H20.6667C21.9927 20.6667 23.2645 21.1934 24.2022 22.1311C25.1399 23.0688 25.6667 24.3406 25.6667 25.6667V32.3333H30.6667C31.1087 32.3333 31.5326 32.1577 31.8452 31.8452C32.1577 31.5326 32.3333 31.1087 32.3333 30.6667V16.4417C31.3203 17.0277 30.1703 17.3353 29 17.3333C27.1333 17.3333 25.445 16.5667 24.2333 15.3283ZM30.6667 7.33333H9C8.59178 7.33339 8.19777 7.48326 7.89271 7.75453C7.58766 8.02579 7.39276 8.39958 7.345 8.805L7.33333 9V10.6667C7.32946 11.5316 7.66198 12.3642 8.26063 12.9886C8.85929 13.6129 9.67719 13.9801 10.5416 14.0126C11.4059 14.045 12.2491 13.7402 12.8929 13.1625C13.5366 12.5848 13.9307 11.7795 13.9917 10.9167L14 10.6667C14.0005 10.2419 14.1631 9.83328 14.4547 9.52439C14.7464 9.21549 15.1449 9.02961 15.569 9.00471C15.9931 8.97982 16.4106 9.11779 16.7364 9.39044C17.0621 9.66309 17.2715 10.0498 17.3217 10.4717L17.3333 10.6667V11.5C17.3337 12.142 17.581 12.7593 18.024 13.224C18.4671 13.6886 19.0719 13.965 19.7132 13.9959C20.3545 14.0267 20.9831 13.8097 21.4687 13.3897C21.9543 12.9697 22.2597 12.379 22.3217 11.74L22.3333 11.5V10.6667C22.3333 10.2246 22.5089 9.80072 22.8215 9.48816C23.134 9.17559 23.558 9 24 9C24.442 9 24.8659 9.17559 25.1785 9.48816C25.4911 9.80072 25.6667 10.2246 25.6667 10.6667C25.6628 11.5316 25.9953 12.3642 26.594 12.9886C27.1926 13.6129 28.0105 13.9801 28.8749 14.0126C29.7393 14.045 30.5824 13.7402 31.2262 13.1625C31.87 12.5848 32.264 11.7795 32.325 10.9167L32.3333 10.6667V9C32.3333 8.59178 32.1834 8.19777 31.9121 7.89271C31.6409 7.58766 31.2671 7.39276 30.8617 7.345L30.6667 7.33333Z" fill="#63C132"/>
</g>
<defs>
<clipPath id="clip0_525_3180">
<rect width="40" height="40" fill="white"/>
</clipPath>
</defs>
</svg>
