<svg width="40" height="40" viewBox="0 0 40 40" fill="none" xmlns="http://www.w3.org/2000/svg">
<g clip-path="url(#clip0_525_3172)">
<path fill-rule="evenodd" clip-rule="evenodd" d="M20.0324 8C16.2307 8 12.7207 8.48 10.1074 9.29667C8.81074 9.70167 7.64074 10.2183 6.75741 10.8717C5.44908 11.8383 4.80408 13.3133 5.05241 14.9217L7.61074 31.5567C8.17574 35.2217 10.7841 38.49 14.6891 39.1683C16.2924 39.4467 18.1507 39.6667 20.0324 39.6667C21.9157 39.6667 23.7724 39.4467 25.3757 39.1683C29.2807 38.4917 31.8907 35.2217 32.4541 31.5567L35.0124 14.92C35.2607 13.3133 34.6157 11.8367 33.3091 10.87C32.4257 10.22 31.2541 9.70167 29.9591 9.29667C27.3407 8.48 23.8341 8 20.0324 8ZM11.1007 15.1883C13.3157 15.88 16.4707 16.3333 20.0341 16.3333C23.5941 16.3333 26.7507 15.88 28.9641 15.1883C31.7007 14.3333 31.9391 13.4083 28.9641 12.4783C26.7524 11.7867 23.5941 11.3333 20.0324 11.3333C16.4707 11.3333 13.3141 11.7867 11.1007 12.4783C8.12574 13.4083 8.36574 14.3333 11.1007 15.1883ZM31.1757 17.9383C27.6891 19.34 23.7524 19.6667 20.0324 19.6667C16.3124 19.6667 12.3757 19.3383 8.88908 17.94L10.9057 31.05C11.2924 33.5617 13.0091 35.4933 15.2591 35.8833C16.7391 36.1417 18.3974 36.3333 20.0324 36.3333C21.6674 36.3333 23.3274 36.1417 24.8057 35.8833C27.0557 35.4933 28.7724 33.5617 29.1591 31.05L31.1757 17.9383Z" fill="#63C132"/>
</g>
<defs>
<clipPath id="clip0_525_3172">
<rect width="40" height="40" fill="white"/>
</clipPath>
</defs>
</svg>
