<svg width="39" height="40" viewBox="0 0 39 40" fill="none" xmlns="http://www.w3.org/2000/svg">
<path d="M29.6886 10C31.3299 13.6167 30.9561 17.8834 29.1524 21.35C27.6249 24.1667 25.4311 26.55 23.5624 29.1667C22.7499 30.3334 21.9374 31.5834 21.3361 32.9334C21.1249 33.3834 20.9786 33.85 20.8161 34.3167C20.6536 34.7834 20.5074 35.25 20.3611 35.7167C20.2149 36.15 20.0361 36.6667 19.4999 36.6667C18.8661 36.6667 18.6874 35.9334 18.5574 35.4334C18.1674 34.2167 17.7774 33.05 17.1761 31.9334C16.4936 30.6167 15.6324 29.4 14.7549 28.2167L29.6886 10ZM14.8199 14.0334L9.45737 20.5667C10.4486 22.7167 11.9274 24.55 13.3411 26.3834C13.6824 26.8 14.0236 27.2334 14.3486 27.6834L21.1249 19.45L21.0599 19.4667C18.6874 20.3 16.0549 19.0667 15.1124 16.6667C14.9824 16.3834 14.8849 16.05 14.8199 15.7167C14.7305 15.1649 14.7305 14.6018 14.8199 14.05V14.0334ZM10.6924 7.70004L10.6761 7.71671C8.04362 11.1334 7.58862 15.8834 9.16487 19.9L15.6486 12L15.5674 11.9167L10.6924 7.70004ZM23.1074 3.93337L17.8749 10.2834L17.9399 10.2667C20.1174 9.50004 22.5549 10.4667 23.6599 12.5C23.9036 12.9667 24.0986 13.4667 24.1636 13.9667C24.2611 14.6 24.2936 15.05 24.1799 15.6667V15.6834L29.3799 9.35004C28.0206 6.81569 25.7905 4.89079 23.1236 3.95004L23.1074 3.93337ZM16.0711 11.4834L22.4249 3.73337L22.3599 3.71671C21.4174 3.46671 20.4586 3.33337 19.4999 3.33337C16.2986 3.33337 13.2761 4.75004 11.1311 7.18337L11.0986 7.20004L16.0711 11.4834Z" fill="#63C132"/>
</svg>
