<svg width="40" height="40" viewBox="0 0 40 40" fill="none" xmlns="http://www.w3.org/2000/svg">
<g clip-path="url(#clip0_525_3176)">
<path fill-rule="evenodd" clip-rule="evenodd" d="M33.3335 5C34.2176 5 35.0654 5.35119 35.6905 5.97631C36.3156 6.60143 36.6668 7.44928 36.6668 8.33333V31.6667C36.6668 32.5507 36.3156 33.3986 35.6905 34.0237C35.0654 34.6488 34.2176 35 33.3335 35H6.66683C5.78277 35 4.93493 34.6488 4.30981 34.0237C3.68469 33.3986 3.3335 32.5507 3.3335 31.6667V8.33333C3.3335 7.44928 3.68469 6.60143 4.30981 5.97631C4.93493 5.35119 5.78277 5 6.66683 5H33.3335ZM33.3335 8.33333H6.66683V31.6667H33.3335V8.33333ZM28.3335 25C28.7583 25.0005 29.1669 25.1631 29.4758 25.4547C29.7847 25.7464 29.9706 26.1449 29.9954 26.569C30.0203 26.9931 29.8824 27.4106 29.6097 27.7364C29.3371 28.0621 28.9503 28.2715 28.5285 28.3217L28.3335 28.3333H11.6668C11.242 28.3329 10.8334 28.1702 10.5245 27.8786C10.2157 27.587 10.0298 27.1884 10.0049 26.7643C9.97998 26.3403 10.118 25.9227 10.3906 25.5969C10.6633 25.2712 11.05 25.0618 11.4718 25.0117L11.6668 25H28.3335ZM16.6668 11.6667C17.5509 11.6667 18.3987 12.0179 19.0239 12.643C19.649 13.2681 20.0002 14.1159 20.0002 15V18.3333C20.0002 19.2174 19.649 20.0652 19.0239 20.6904C18.3987 21.3155 17.5509 21.6667 16.6668 21.6667H13.3335C12.4494 21.6667 11.6016 21.3155 10.9765 20.6904C10.3514 20.0652 10.0002 19.2174 10.0002 18.3333V15C10.0002 14.1159 10.3514 13.2681 10.9765 12.643C11.6016 12.0179 12.4494 11.6667 13.3335 11.6667H16.6668ZM28.3335 18.3333C28.7755 18.3333 29.1994 18.5089 29.512 18.8215C29.8246 19.134 30.0002 19.558 30.0002 20C30.0002 20.442 29.8246 20.8659 29.512 21.1785C29.1994 21.4911 28.7755 21.6667 28.3335 21.6667H23.3335C22.8915 21.6667 22.4675 21.4911 22.155 21.1785C21.8424 20.8659 21.6668 20.442 21.6668 20C21.6668 19.558 21.8424 19.134 22.155 18.8215C22.4675 18.5089 22.8915 18.3333 23.3335 18.3333H28.3335ZM16.6668 15H13.3335V18.3333H16.6668V15ZM28.3335 11.6667C28.7583 11.6671 29.1669 11.8298 29.4758 12.1214C29.7847 12.413 29.9706 12.8116 29.9954 13.2357C30.0203 13.6597 29.8824 14.0773 29.6097 14.4031C29.3371 14.7288 28.9503 14.9382 28.5285 14.9883L28.3335 15H23.3335C22.9087 14.9995 22.5001 14.8369 22.1912 14.5453C21.8823 14.2536 21.6964 13.8551 21.6715 13.431C21.6466 13.0069 21.7846 12.5894 22.0573 12.2636C22.3299 11.9379 22.7167 11.7285 23.1385 11.6783L23.3335 11.6667H28.3335Z" fill="#63C132"/>
</g>
<defs>
<clipPath id="clip0_525_3176">
<rect width="40" height="40" fill="white"/>
</clipPath>
</defs>
</svg>
