<svg width="40" height="40" viewBox="0 0 40 40" fill="none" xmlns="http://www.w3.org/2000/svg">
<path fill-rule="evenodd" clip-rule="evenodd" d="M20.6667 1C29.8717 1 37.3333 8.46167 37.3333 17.6667C37.3333 26.8717 29.8717 34.3333 20.6667 34.3333C11.4617 34.3333 4 26.8717 4 17.6667C4 8.46167 11.4617 1 20.6667 1ZM22.3333 4.43667V6C22.3329 6.4248 22.1702 6.83339 21.8786 7.14228C21.587 7.45117 21.1884 7.63706 20.7643 7.66195C20.3403 7.68685 19.9227 7.54888 19.5969 7.27623C19.2712 7.00357 19.0618 6.61683 19.0117 6.195L19 6V4.43667C16.1363 4.7983 13.4671 6.0789 11.393 8.08631C9.31885 10.0937 7.95169 12.7196 7.49667 15.57L7.43667 16H9C9.4248 16.0005 9.83339 16.1631 10.1423 16.4547C10.4512 16.7464 10.6371 17.1449 10.662 17.569C10.6868 17.9931 10.5489 18.4106 10.2762 18.7364C10.0036 19.0621 9.61683 19.2715 9.195 19.3217L9 19.3333H7.43667C7.83939 22.5187 9.3779 25.4519 11.7696 27.594C14.1613 29.7361 17.2456 30.9434 20.4559 30.9941C23.6663 31.0447 26.7871 29.9354 29.2452 27.8698C31.7033 25.8042 33.3336 22.9211 33.8367 19.75L33.8967 19.3333H32.3333C31.9085 19.3329 31.4999 19.1702 31.1911 18.8786C30.8822 18.587 30.6963 18.1884 30.6714 17.7643C30.6465 17.3403 30.7845 16.9227 31.0571 16.5969C31.3298 16.2712 31.7165 16.0618 32.1383 16.0117L32.3333 16H33.8967C33.5334 13.0936 32.2204 10.3885 30.1617 8.305L26.1217 16.2367L25.8633 16.7267L25.3467 17.7433C24.73 18.9433 24.06 20.1667 23.1417 21.085C21.5217 22.7033 18.8283 22.9 17.1317 21.2017C15.4333 19.505 15.63 16.8117 17.2483 15.1917C18.035 14.405 19.045 13.8 20.075 13.255L21.6067 12.47L23.0217 11.73L30.0267 8.17167C27.9436 6.11324 25.2392 4.80026 22.3333 4.43667ZM22.6033 15.73L22.2533 15.9167L21.8933 16.105C21.2233 16.4533 20.5233 16.815 19.94 17.2683L19.605 17.5517L19.4833 17.6917C19.1617 18.125 19.2583 18.615 19.4883 18.845C19.7183 19.075 20.2083 19.1717 20.6417 18.85L20.785 18.7267L21.065 18.3933C21.4267 17.9267 21.7317 17.385 22.0167 16.8433L22.2283 16.44C22.3533 16.1967 22.4783 15.9567 22.6033 15.73Z" fill="#63C132"/>
</svg>
