<svg width="28" height="28" viewBox="0 0 28 28" fill="none" xmlns="http://www.w3.org/2000/svg">
<path d="M7.5 15.4444V20.3968M14 10.4921V20.3968M20.5 18.746V20.3968M27 25.3492V11.3175C27 11.0612 26.9413 10.8084 26.8284 10.5792C26.7156 10.35 26.5518 10.1506 26.35 9.99683L14.975 1.33016C14.6937 1.11585 14.3516 1 14 1C13.6484 1 13.3063 1.11585 13.025 1.33016L1.65 9.99683C1.44818 10.1506 1.28438 10.35 1.17156 10.5792C1.05874 10.8084 1 11.0612 1 11.3175V25.3492C1 25.787 1.17121 26.2069 1.47595 26.5165C1.7807 26.8261 2.19402 27 2.625 27H25.375C25.806 27 26.2193 26.8261 26.524 26.5165C26.8288 26.2069 27 25.787 27 25.3492Z" stroke="#63C132" stroke-width="2" stroke-linecap="round" stroke-linejoin="round"/>
</svg>
