<svg width="37" height="39" viewBox="0 0 37 39" fill="none" xmlns="http://www.w3.org/2000/svg">
<path d="M9 9C9.26522 9 9.51957 8.89464 9.70711 8.70711C9.89464 8.51957 10 8.26522 10 8C10 7.73478 9.89464 7.48043 9.70711 7.29289C9.51957 7.10536 9.26522 7 9 7C8.73478 7 8.48043 7.10536 8.29289 7.29289C8.10536 7.48043 8 7.73478 8 8C8 8.26522 8.10536 8.51957 8.29289 8.70711C8.48043 8.89464 8.73478 9 9 9Z" fill="#63C132"/>
<path fill-rule="evenodd" clip-rule="evenodd" d="M10.0861 0.999954C11.3461 -0.260046 13.5001 0.631954 13.5001 2.41395V3.99995H15.0861C16.8681 3.99995 17.7601 6.15395 16.5001 7.41395L14.7071 9.20695C14.695 9.21923 14.6827 9.23124 14.6701 9.24295L18.1261 15.09C18.5351 15.782 19.1431 16.3348 19.8709 16.6762C20.5987 17.0176 21.4124 17.1318 22.2061 17.004L34.7861 14.977C36.4161 14.714 37.5261 16.586 36.5141 17.891C35.5441 19.142 35.0551 20.741 34.7021 22.491C33.3841 29.02 27.8541 34.052 21.0001 34.88V37H23.5001V39H14.0001V37H19.0001V35C13.5861 35 8.79008 32.393 5.89308 28.392C3.56908 25.182 3.94708 21.057 4.88708 17.625L5.38208 15.82C5.63387 14.9014 5.69546 13.9411 5.56308 12.998L5.50008 13H2.91408C1.13208 13 0.240076 10.846 1.50008 9.58595L10.0861 0.999954ZM15.0861 5.99995L13.6201 7.46595L12.8901 6.23295C12.797 6.07525 12.6945 5.9233 12.5831 5.77795C12.8581 5.91995 13.1691 5.99995 13.5001 5.99995H15.0861ZM11.5001 3.99995C11.5001 4.33395 11.5821 4.64995 11.7271 4.92595C11.1692 4.50218 10.5211 4.21299 9.83308 4.08095L11.5001 2.41395V3.99995ZM2.91408 11L4.50908 9.40595C4.54908 9.61395 4.60508 9.82195 4.67708 10.03L5.01108 11H2.91408ZM6.56808 9.37795C6.36397 8.78162 6.38813 8.13079 6.6359 7.55123C6.88367 6.97167 7.33746 6.50451 7.90958 6.24002C8.48171 5.97553 9.13156 5.93249 9.73357 6.1192C10.3356 6.30592 10.847 6.70914 11.1691 7.25095L16.4051 16.108C17.0186 17.1457 17.9306 17.9746 19.022 18.4865C20.1135 18.9984 21.3339 19.1697 22.5241 18.978L34.6721 17.021C33.5901 18.578 33.0831 20.404 32.7421 22.096C32.4709 23.4338 31.9921 24.7211 31.3231 25.911C31.2289 25.9707 31.1454 26.0457 31.0761 26.133C29.1831 28.513 26.3781 30 23.2641 30C17.6541 30 13.0001 25.136 13.0001 19C13.0001 18.7347 12.8947 18.4804 12.7072 18.2928C12.5196 18.1053 12.2653 18 12.0001 18C11.7349 18 11.4805 18.1053 11.293 18.2928C11.1054 18.4804 11.0001 18.7347 11.0001 19C11.0001 26.12 16.4321 32 23.2641 32C23.6641 32 24.0581 31.98 24.4481 31.94C22.718 32.6432 20.8676 33.0032 19.0001 33C14.2371 33 10.0401 30.709 7.51308 27.22C5.74708 24.781 5.91308 21.447 6.81608 18.154L7.31108 16.348C7.79003 14.6008 7.73043 12.7497 7.14008 11.037L6.56808 9.37795Z" fill="#63C132"/>
</svg>
