<svg width="36" height="29" viewBox="0 0 36 29" fill="none" xmlns="http://www.w3.org/2000/svg">
<path d="M18.6531 4.06568C18.4453 3.88466 18.177 3.78467 17.8989 3.78467C17.6209 3.78467 17.3526 3.88466 17.1448 4.06568C15.7516 5.27756 14.728 6.84375 14.1871 8.59077C13.6463 10.3378 13.6094 12.1974 14.0806 13.9637C11.8465 12.6714 9.25787 12.0915 6.67279 12.3043C6.51934 12.3167 6.36991 12.3587 6.23311 12.4279C6.09631 12.4971 5.97483 12.5922 5.87569 12.7077C5.77655 12.8231 5.7017 12.9566 5.65545 13.1006C5.6092 13.2445 5.59247 13.396 5.60623 13.5463C5.82447 15.9009 6.95087 18.2383 8.51199 20.0495C7.89932 20.0112 7.2846 20.017 6.67279 20.0668C6.51934 20.0792 6.36991 20.1212 6.23311 20.1904C6.09631 20.2596 5.97483 20.3547 5.87569 20.4702C5.77655 20.5856 5.7017 20.7191 5.65545 20.8631C5.6092 21.007 5.59247 21.1585 5.60623 21.3088C5.85925 24.0392 7.1449 26.5782 9.21057 28.4269C11.2762 30.2757 13.9726 31.3005 16.7699 31.3H19.028C21.8247 31.3001 24.5204 30.2753 26.5857 28.427C28.6509 26.5787 29.9365 24.0403 30.1899 21.3105C30.2039 21.1601 30.1874 21.0084 30.1412 20.8643C30.0951 20.7201 30.0203 20.5864 29.9211 20.4708C29.822 20.3551 29.7004 20.2599 29.5635 20.1905C29.4265 20.1212 29.277 20.0791 29.1234 20.0668C28.5115 20.017 27.8968 20.0112 27.2841 20.0495C28.8453 18.2383 29.9717 15.9009 30.1881 13.5463C30.2017 13.3962 30.1848 13.2449 30.1386 13.1012C30.0924 12.9574 30.0177 12.8241 29.9187 12.7087C29.8198 12.5933 29.6987 12.4982 29.5622 12.4288C29.4257 12.3594 29.2766 12.3171 29.1234 12.3043C26.5388 12.0918 23.9509 12.6717 21.7173 13.9637C22.1889 12.1976 22.1524 10.338 21.6119 8.59095C21.0713 6.8439 20.0461 5.27763 18.6531 4.06568ZM17.8998 25.1383C16.3947 23.0915 14.2852 21.5466 11.856 20.7119C11.8361 20.6961 11.8156 20.6812 11.7944 20.6671C9.68063 19.2595 7.89247 16.6375 7.44015 13.9913C10.0892 13.924 12.6707 14.8157 14.6913 16.496C16.0272 17.6052 16.395 18.6178 16.7241 19.5286C16.8438 19.8563 16.9582 20.172 17.1113 20.4722C17.1843 20.6157 17.2967 20.7364 17.4358 20.8208C17.575 20.9052 17.7353 20.9499 17.8989 20.9499C18.0626 20.9499 18.2229 20.9052 18.3621 20.8208C18.5012 20.7364 18.6136 20.6157 18.6865 20.4722C18.8397 20.172 18.9541 19.8563 19.0737 19.5269C19.4029 18.6195 19.7707 17.6052 21.1083 16.496C23.1282 14.8155 25.7091 13.9232 28.3577 13.9896C27.9054 16.6375 26.1173 19.2578 24.0035 20.6671C23.9823 20.6811 23.9617 20.6961 23.9419 20.7119C21.5133 21.5468 19.4044 23.0918 17.8998 25.1383ZM16.7699 29.575C14.5183 29.575 12.3407 28.7869 10.6295 27.3526C8.91834 25.9183 7.78603 23.9322 7.43663 21.7521C9.40215 21.7029 11.344 22.1809 13.0525 23.1346C14.761 24.0883 16.1712 25.4814 17.1307 27.1634C17.2071 27.2974 17.3185 27.409 17.4536 27.4867C17.5886 27.5643 17.7424 27.6053 17.8989 27.6053C18.0555 27.6053 18.2093 27.5643 18.3443 27.4867C18.4794 27.409 18.5908 27.2974 18.6672 27.1634C19.6267 25.4814 21.0369 24.0883 22.7454 23.1346C24.4539 22.1809 26.3957 21.7029 28.3613 21.7521C28.0118 23.9325 26.8793 25.9188 25.1677 27.3531C23.4561 28.7875 21.2781 29.5754 19.0262 29.575H16.7699ZM17.8981 17.1826C16.3703 15.6548 15.5145 13.6009 15.5145 11.4616C15.5145 9.32239 16.3703 7.26842 17.8981 5.74066C19.4259 7.26842 20.2816 9.32239 20.2816 11.4616C20.2816 13.6009 19.4259 15.6548 17.8981 17.1826Z" fill="#63C132"/>
</svg>
